<svg version="1.1" viewBox="0.0 0.0 144.0 144.0" fill="none" stroke="none" stroke-linecap="square" stroke-miterlimit="10" xmlns:xlink="http://www.w3.org/1999/xlink" xmlns="http://www.w3.org/2000/svg"><clipPath id="p.0"><path d="m0 0l144.0 0l0 144.0l-144.0 0l0 -144.0z" clip-rule="nonzero"/></clipPath><g clip-path="url(#p.0)"><path fill="#000000" fill-opacity="0.0" d="m0 0l144.0 0l0 144.0l-144.0 0z" fill-rule="evenodd"/><path fill="#000000" d="m0 45.571518l0 0c0 -10.148048 8.226619 -18.374668 18.374668 -18.374668l107.25067 0c4.8732605 0 9.546936 1.9358978 12.992844 5.381817c3.4459229 3.445919 5.3818207 8.119587 5.3818207 12.992851l0 52.856964c0 10.148048 -8.226624 18.374664 -18.374664 18.374664l-107.25067 0l0 0c-10.148049 0 -18.374668 -8.226616 -18.374668 -18.374664z" fill-rule="evenodd"/><path stroke="#000000" stroke-width="1.0" stroke-linejoin="round" stroke-linecap="butt" d="m0 45.571518l0 0c0 -10.148048 8.226619 -18.374668 18.374668 -18.374668l107.25067 0c4.8732605 0 9.546936 1.9358978 12.992844 5.381817c3.4459229 3.445919 5.3818207 8.119587 5.3818207 12.992851l0 52.856964c0 10.148048 -8.226624 18.374664 -18.374664 18.374664l-107.25067 0l0 0c-10.148049 0 -18.374668 -8.226616 -18.374668 -18.374664z" fill-rule="evenodd"/><path fill="#000000" fill-opacity="0.0" d="m-7.2125983 37.102364l158.4252 0l0 69.79527l-158.4252 0z" fill-rule="evenodd"/><path fill="#ffffff" d="m42.51977 44.573265l0 46.484375l-7.515625 0l0 -4.328125q-1.9375 2.390625 -4.796877 3.578125q-2.84375 1.1875 -6.296875 1.1875q-4.828125 0 -8.6875 -2.125q-3.84375 -2.140625 -6.046875 -6.046875q-2.1874995 -3.921875 -2.1874995 -9.0q0 -5.0625 2.1874995 -8.953125q2.203125 -3.890625 6.046875 -6.015625q3.859375 -2.125 8.6875 -2.125q3.328125 0 6.078125 1.125q2.750002 1.125 4.703127 3.375l0 -17.15625l7.828125 0zm-17.671877 40.21875q2.828125 0 5.078125 -1.28125q2.250002 -1.28125 3.562502 -3.65625q1.328125 -2.390625 1.328125 -5.53125q0 -3.125 -1.328125 -5.5q-1.3125 -2.390625 -3.562502 -3.671875q-2.25 -1.28125 -5.078125 -1.28125q-2.8125 0 -5.078125 1.28125q-2.25 1.28125 -3.5625 3.671875q-1.3125 2.375 -1.3125 5.5q0 3.140625 1.3125 5.53125q1.3125 2.375 3.5625 3.65625q2.265625 1.28125 5.078125 1.28125zm46.93541 -27.5625q6.328125 0 10.140625 3.703125q3.828125 3.6875 3.828125 10.953125l0 19.171875l-7.828125 0l0 -18.171875q0 -4.390625 -2.078125 -6.609375q-2.0625 -2.21875 -5.875 -2.21875q-4.328125 0 -6.843746 2.609375q-2.5 2.59375 -2.5 7.46875l0 16.921875l-7.828125 0l0 -33.453125l7.453125 0l0 4.3125q1.9375 -2.3125 4.874996 -3.5q2.953125 -1.1875 6.65625 -1.1875zm54.636574 0.375l-15.671883 36.140625q-2.1875 5.453125 -5.328125 7.671875q-3.125 2.234375 -7.578125 2.234375q-2.5 0 -4.953125 -0.8125q-2.4375 -0.8125 -4.0 -2.25l3.125 -5.765625q1.140625 1.0625 2.671875 1.6875q1.53125 0.625 3.09375 0.625q2.078125 0 3.421875 -1.0625q1.34375 -1.0625 2.46875 -3.578125l0.5625 -1.3125l-14.59375 -33.578125l8.140625 0l10.53125 24.75l10.59375 -24.75l7.5156326 0zm5.3191223 33.890625q-2.125 0 -3.640625 -1.46875q-1.5 -1.46875 -1.5 -3.734375q0 -2.3125 1.46875 -3.75q1.484375 -1.453125 3.671875 -1.453125q2.203125 0 3.671875 1.453125q1.46875 1.4375 1.46875 3.75q0 2.265625 -1.5 3.734375q-1.5 1.46875 -3.640625 1.46875z" fill-rule="nonzero"/></g></svg>